<?xml version="1.0" encoding="UTF-8"?><svg id="uuid-bf95ee25-af8c-4f4c-8496-7adbbb093be1" xmlns="http://www.w3.org/2000/svg" viewBox="0 0 499.2713 106.0046"><path d="m191.01274,16.96186v5.98212h-22.25592v9.2713h19.20724c.8441,0,1.54652.27804,2.15796.88403.60926.60157.89073,1.29616.89073,2.12971,0,.88347-.28146,1.57749-.89073,2.13425-.61144.60429-1.31386.92884-2.15796.92884h-19.20724v9.22524h22.25592v6.02761h-28.40642V19.99115c0-.80485.32785-1.56308.93941-2.17793.60928-.56833,1.31386-.85136,2.15796-.85136h25.30906Z" fill="#fff"/><path d="m347.84286,16.96186v5.98212h-22.25592v9.2713h19.20724c.8441,0,1.54652.27804,2.15796.88403.60926.60157.89073,1.29616.89073,2.12971,0,.88347-.28147,1.57749-.89073,2.13425-.61144.60429-1.31386.92884-2.15796.92884h-19.20724v9.22524h22.25592v6.02761h-28.40641V19.99115c0-.80485.32784-1.56308.93939-2.17793.60928-.56833,1.31386-.85136,2.15796-.85136h25.30906Z" fill="#fff"/><path d="m219.07572,18.72051l14.46571,30.55663c.66473,1.38918.3013,3.27965-1.25623,4.07724-1.46677.75063-3.24811.1612-4.03243-1.34154l-3.53614-7.2844h-17.33049l-3.53616,7.2844c-.7843,1.50273-2.56564,2.09216-4.03243,1.34154-1.55752-.79759-1.92314-2.68806-1.25621-4.07724l14.46567-30.55663c.71129-1.47392,1.62629-2.18292,3.00004-2.18292,1.42242,0,2.42386.80928,3.04867,2.18292Zm2.97554,20.02525l-5.97327-13.39278-6.0309,13.39278h12.00417Z" fill="#fff"/><path d="m270.59757,25.31691c-5.3617-1.78849-9.99457-2.70519-14.00261-2.70519-4.16314,0-8.15346,1.08391-9.98574,3.248v18.74577c1.83227,2.20844,5.8226,3.28918,9.98574,3.28918,3.07305,0,6.91493-.33238,9.35647-1.03922v-8.56332h-7.23177c-.79759,0-1.54641-.32455-2.16023-.92884-.60926-.55676-.89059-1.25078-.89059-2.13425,0-.83355.28133-1.52814.89059-2.12971.61382-.60599,1.36264-.88403,2.16023-.88403h13.33584v18.32366c-3.59147,2.27208-8.74505,3.38379-15.46053,3.38379-4.63062,0-8.4836-.92669-11.55452-2.73571-3.07296-1.80686-4.5818-4.08121-4.5818-6.72492v-18.41736c0-2.64428,1.50884-4.9159,4.5818-6.77086,3.07092-1.81015,6.92389-2.73627,11.55452-2.73627,5.57224,0,10.25604.88063,14.05584,2.68976l-.05323,6.08955Z" fill="#fff"/><path d="m283.92228,19.61226c0-.8508.32795-1.56252.93724-2.17622.61373-.61541,1.31613-.89844,2.16025-.89844.84635,0,1.59743.28303,2.20898.89844.56277.61371.8441,1.32543.8441,2.17622v27.9051h21.55578v6.02761h-27.70635V19.61226Z" fill="#fff"/><path d="m383.41679,38.46001h-17.4369v13.74898c0,.98704-.77987,1.71373-1.7194,1.71373-.93494,0-1.66391-.72669-1.66391-1.71373V16.91422h20.82021c4.84103,0,7.18515,6.01093,7.18515,10.69644,0,4.68607-2.34411,10.84935-7.18515,10.84935Zm.5738-18.16416h-18.0107v14.77981h18.0107c1.97632-1.71384,3.17506-3.96153,3.17506-7.465,0-3.50233-1.19874-5.59665-3.17506-7.31481Z" fill="#fff"/><path d="m426.84949,53.83742c-.75778.38274-1.76589-.05479-2.11369-.76549l-4.46455-9.79516h-19.73881l-4.41572,9.79516c-.34795.7107-1.49559,1.14823-2.13141.81869-.73781-.38218-1.10343-1.56195-.75111-2.26709l15.55131-33.714c.28587-.82414.86418-1.37194,1.61527-1.37194.81089,0,1.32928.5478,1.67493,1.37194l15.54257,33.714c.34783.70514-.02652,1.83783-.76878,2.21389Zm-16.44873-32.2842l-8.43261,18.64821h16.91392l-8.4813-18.64821Z" fill="#fff"/><path d="m484.85201,53.92272c-5.77611,0-9.89042-1.09004-12.33425-2.33742v-3.46081c1.35152.52228,6.19263,2.49805,12.33425,2.49805,6.56043,0,9.7997-2.90019,11.03826-4.7918v-6.17383c-.46978-.74609-1.66609-.8939-6.87287-2.08649l-7.4422-1.68945c-4.58194-.99589-9.58042-1.59246-9.58042-5.21776v-5.1286c0-4.52646,5.41506-8.997,14.4725-8.997,5.72507,0,9.89045,1.09061,12.33658,2.33799v3.41873c-1.35379-.52239-6.24589-2.53855-12.33658-2.53855-6.61148,0-9.83963,2.86038-11.03381,4.79293v6.1145c.46748.7428,1.66393.89458,6.86845,2.08661l7.44659,1.64068c4.57751,1.04126,9.52278,1.58861,9.52278,5.26643v5.26938c0,4.5259-5.41272,8.99643-14.41928,8.99643Z" fill="#fff"/><path d="m447.88446,53.92272c-5.77824,0-9.89042-1.09004-12.33655-2.33742v-3.46081c1.35381.52228,6.19496,2.49805,12.33655,2.49805,6.56043,0,9.79973-2.90019,11.03608-4.7918v-6.17383c-.46757-.74609-1.66393-.8939-6.87285-2.08649l-7.44002-1.68945c-4.58409-.99589-9.58033-1.59246-9.58033-5.21776v-5.1286c0-4.52646,5.41492-8.997,14.47014-8.997,5.72731,0,9.89272,1.09061,12.33655,2.33799v3.41873c-1.3537-.52239-6.24362-2.53855-12.33655-2.53855-6.60924,0-9.83739,2.86038-11.03369,4.79293v6.1145c.46964.7428,1.66606.89458,6.87055,2.08661l7.44447,1.64068c4.57967,1.04126,9.52271,1.58861,9.52271,5.26643v5.26938c0,4.5259-5.41053,8.99643-14.41705,8.99643Z" fill="#fff"/><path d="m306.64549,87.3483c-.76685,0-1.38514-.60216-1.38514-1.34871v-5.49994h-8.15659v6.68246h-2.79076v-14.8813c0-.74804.63859-1.35095,1.40559-1.35095.76685,0,1.38516.60291,1.38516,1.35095v5.50143h8.15659v-6.68619h2.79073v14.88354c0,.74654-.63862,1.34871-1.40559,1.34871Z" fill="#d3df4e"/><path d="m319.2201,87.18212v-14.71512c0-.74804.63859-1.35095,1.40559-1.35095h9.69044v2.7004h-8.3053v3.9858h6.92315c.76688,0,1.38215.60216,1.38215,1.34871s-.61527,1.34871-1.38215,1.34871h-6.92315v3.9849h8.3053v2.69756h-11.09603Z" fill="#d3df4e"/><path d="m342.25219,87.18212v-14.8813c0-.74804.63859-1.35095,1.40559-1.35095s1.38514.60291,1.38514,1.35095v12.18374h9.07511v2.69756h-11.86584Z" fill="#d3df4e"/><path d="m366.15906,87.3483c-.767,0-1.38517-.60216-1.38517-1.34871v-14.88354h2.79073v14.88354c0,.74654-.63859,1.34871-1.40556,1.34871Z" fill="#d3df4e"/><path d="m128.62118,44.17656L91.28839,0,0,106.00457s20.87712-13.47209,47.91746-16.19873c20.12196-2.02806,36.08054.50152,54.3266,7.01804,17.25188,6.16162,31.98348,1.33651,36.76699-4.42588-13.10381,2.86123-26.46568-1.47767-42.48288-12.9234-8.39332-5.99709-12.31984-8.35897-20.69774-9.00403-7.92934-.60901-16.594,3.73988-19.07437,6.53149-3.88887-13.59171,7.05569-25.70836,20.54932-27.16721,1.21801-3.64577,10.70655-11.02597,30.29253-7.53747,7.41127,1.31938,9.66792,2.86237,12.94438,2.82314,6.84093-.08255,8.0789-.94396,8.0789-.94396Z" fill="#d3df4e"/></svg>